<?xml version="1.0" encoding="UTF-8" standalone="no"?>
<!-- Created with Inkscape (http://www.inkscape.org/) -->

<svg
   width="210mm"
   height="297mm"
   viewBox="0 0 210 297"
   version="1.1"
   id="svg172"
   inkscape:version="1.2 (dc2aedaf03, 2022-05-15)"
   sodipodi:docname="acids-icon.svg"
   inkscape:export-filename="acids-icon-active.png"
   inkscape:export-xdpi="16.135231"
   inkscape:export-ydpi="16.135231"
   xmlns:inkscape="http://www.inkscape.org/namespaces/inkscape"
   xmlns:sodipodi="http://sodipodi.sourceforge.net/DTD/sodipodi-0.dtd"
   xmlns="http://www.w3.org/2000/svg"
   xmlns:svg="http://www.w3.org/2000/svg">
  <sodipodi:namedview
     id="namedview174"
     pagecolor="#505050"
     bordercolor="#eeeeee"
     borderopacity="1"
     inkscape:showpageshadow="0"
     inkscape:pageopacity="0"
     inkscape:pagecheckerboard="0"
     inkscape:deskcolor="#505050"
     inkscape:document-units="mm"
     showgrid="false"
     inkscape:zoom="1.69812"
     inkscape:cx="64.18863"
     inkscape:cy="1035.8514"
     inkscape:window-width="1280"
     inkscape:window-height="657"
     inkscape:window-x="-8"
     inkscape:window-y="-8"
     inkscape:window-maximized="1"
     inkscape:current-layer="layer1" />
  <defs
     id="defs169" />
  <g
     inkscape:label="Camada 1"
     inkscape:groupmode="layer"
     id="layer1">
    <path
       style="fill:none;fill-opacity:1;stroke:#005fff;stroke-width:1.2186;stroke-miterlimit:10;stroke-opacity:1"
       id="path228-8"
       sodipodi:type="arc"
       sodipodi:cx="39.076572"
       sodipodi:cy="274.29367"
       sodipodi:rx="3.414618"
       sodipodi:ry="3.4146907"
       sodipodi:start="0.42433673"
       sodipodi:end="0.40889683"
       sodipodi:open="true"
       sodipodi:arc-type="arc"
       d="m 42.188355,275.69955 a 3.414618,3.4146907 0 0 1 -4.505615,1.71137 3.414618,3.4146907 0 0 1 -1.72871,-4.49907 3.414618,3.4146907 0 0 1 4.492269,-1.7461 3.414618,3.4146907 0 0 1 1.76339,4.48559"
       inkscape:export-filename="acids-icon-active.png"
       inkscape:export-xdpi="17.917192"
       inkscape:export-ydpi="17.917192" />
    <path
       style="fill:none;fill-opacity:1;stroke:#005fff;stroke-width:1.2186;stroke-miterlimit:10;stroke-opacity:1"
       id="path228-8-3"
       sodipodi:type="arc"
       sodipodi:cx="16.027851"
       sodipodi:cy="292.6113"
       sodipodi:rx="3.414618"
       sodipodi:ry="3.4146907"
       sodipodi:start="0.42433673"
       sodipodi:end="0.40889683"
       sodipodi:open="true"
       sodipodi:arc-type="arc"
       d="m 19.139634,294.01718 a 3.414618,3.4146907 0 0 1 -4.505615,1.71137 3.414618,3.4146907 0 0 1 -1.728711,-4.49907 3.414618,3.4146907 0 0 1 4.49227,-1.7461 3.414618,3.4146907 0 0 1 1.76339,4.48559" />
    <rect
       style="fill:#005fff;fill-opacity:1;fill-rule:evenodd;stroke:none;stroke-width:0.0609362;stroke-dasharray:none;stroke-opacity:1"
       id="rect615"
       width="21.883692"
       height="1.192873"
       x="243.09799"
       y="70.998451"
       ry="0.0045725503"
       transform="matrix(0.39256451,0.91972447,-0.92253597,0.38591112,0,0)" />
    <rect
       style="fill:#005fff;fill-opacity:1;fill-rule:evenodd;stroke:none;stroke-width:0.0609362;stroke-dasharray:none;stroke-opacity:1"
       id="rect615-6"
       width="21.883692"
       height="1.192873"
       x="250.74196"
       y="99.55603"
       ry="0.0045725503"
       transform="matrix(0.39256451,0.91972447,-0.92253597,0.38591112,0,0)" />
    <rect
       style="fill:#005fff;fill-opacity:1;fill-rule:evenodd;stroke:none;stroke-width:0.0609621;stroke-dasharray:none;stroke-opacity:1"
       id="rect615-5"
       width="22.836876"
       height="1.2112975"
       x="150.05002"
       y="-242.44821"
       ry="0.0046431781"
       transform="matrix(-0.79232671,0.61009702,-0.64346029,-0.7654795,0,0)" />
    <path
       style="fill:none;fill-opacity:1;stroke:#005fff;stroke-width:1.2186;stroke-miterlimit:10;stroke-opacity:1"
       id="path228-8-1"
       sodipodi:type="arc"
       sodipodi:cx="27.641775"
       sodipodi:cy="248.15182"
       sodipodi:rx="3.414618"
       sodipodi:ry="3.4146907"
       sodipodi:start="0.42433673"
       sodipodi:end="0.40889683"
       sodipodi:open="true"
       sodipodi:arc-type="arc"
       d="m 30.753558,249.55771 a 3.414618,3.4146907 0 0 1 -4.505615,1.71137 3.414618,3.4146907 0 0 1 -1.728711,-4.49907 3.414618,3.4146907 0 0 1 4.49227,-1.7461 3.414618,3.4146907 0 0 1 1.76339,4.48559" />
    <path
       style="fill:none;fill-opacity:1;stroke:#005fff;stroke-width:1.2186;stroke-miterlimit:10;stroke-opacity:1"
       id="path228-8-3-4"
       sodipodi:type="arc"
       sodipodi:cx="4.593049"
       sodipodi:cy="266.46906"
       sodipodi:rx="3.414618"
       sodipodi:ry="3.4146907"
       sodipodi:start="0.42433673"
       sodipodi:end="0.40889683"
       sodipodi:open="true"
       sodipodi:arc-type="arc"
       d="m 7.7048315,267.87494 a 3.414618,3.4146907 0 0 1 -4.5056149,1.71137 3.414618,3.4146907 0 0 1 -1.7287103,-4.49907 3.414618,3.4146907 0 0 1 4.4922694,-1.7461 3.414618,3.4146907 0 0 1 1.7633903,4.48559" />
    <rect
       style="fill:#005fff;fill-opacity:1;fill-rule:evenodd;stroke:none;stroke-width:0.0609621;stroke-dasharray:none;stroke-opacity:1"
       id="rect615-5-5"
       width="22.836876"
       height="1.2112975"
       x="141.97456"
       y="-214.73393"
       ry="0.0046431781"
       transform="matrix(-0.79232671,0.61009702,-0.64346029,-0.7654795,0,0)" />
  </g>
</svg>
